<?xml version="1.0" standalone="no"?>
<!DOCTYPE svg PUBLIC "-//W3C//DTD SVG 1.1//EN" "http://www.w3.org/Graphics/SVG/1.1/DTD/svg11.dtd" >
<svg xmlns="http://www.w3.org/2000/svg">
<metadata>
Created by FontForge 20120731 at Tue Mar  7 20:42:44 2017
 By admin
</metadata>
<defs>
<font id="iconfont" horiz-adv-x="1024" >
  <font-face 
    font-family="iconfont"
    font-weight="500"
    font-stretch="normal"
    units-per-em="1024"
    panose-1="2 0 6 3 0 0 0 0 0 0"
    ascent="896"
    descent="-128"
    x-height="792"
    bbox="-80 -212 1354 896"
    underline-thickness="0"
    underline-position="0"
    unicode-range="U+0078-E851"
  />
<missing-glyph 
 />
    <glyph glyph-name=".notdef" 
 />
    <glyph glyph-name=".notdef" 
 />
    <glyph glyph-name=".null" horiz-adv-x="0" 
 />
    <glyph glyph-name="nonmarkingreturn" horiz-adv-x="341" 
 />
    <glyph glyph-name="x" unicode="x" horiz-adv-x="1001" 
d="M281 543q-27 -1 -53 -1h-83q-18 0 -36.5 -6t-32.5 -18.5t-23 -32t-9 -45.5v-76h912v41q0 16 -0.5 30t-0.5 18q0 13 -5 29t-17 29.5t-31.5 22.5t-49.5 9h-133v-97h-438v97zM955 310v-52q0 -23 0.5 -52t0.5 -58t-10.5 -47.5t-26 -30t-33 -16t-31.5 -4.5q-14 -1 -29.5 -0.5
t-29.5 0.5h-32l-45 128h-439l-44 -128h-29h-34q-20 0 -45 1q-25 0 -41 9.5t-25.5 23t-13.5 29.5t-4 30v167h911zM163 247q-12 0 -21 -8.5t-9 -21.5t9 -21.5t21 -8.5q13 0 22 8.5t9 21.5t-9 21.5t-22 8.5zM316 123q-8 -26 -14 -48q-5 -19 -10.5 -37t-7.5 -25t-3 -15t1 -14.5
t9.5 -10.5t21.5 -4h37h67h81h80h64h36q23 0 34 12t2 38q-5 13 -9.5 30.5t-9.5 34.5q-5 19 -11 39h-368zM336 498v228q0 11 2.5 23t10 21.5t20.5 15.5t34 6h188q31 0 51.5 -14.5t20.5 -52.5v-227h-327z" />
    <glyph glyph-name="iconfontduihua" unicode="&#xe634;" 
d="M780 246v394q0 29 -21 50t-50 21h-618q-29 0 -50 -21t-21 -50v-394q0 -30 21 -50.5t50 -20.5h118v-162l180 162h320q29 0 50 20.5t21 50.5zM933 527h-88v-345q0 -22 -23 -44.5t-45 -22.5q-30 0 -346 -1q0 -29 20.5 -46.5t50.5 -17.5h136l177 -161v161h118q30 0 50.5 17.5
t20.5 45.5v345q0 29 -20.5 49t-50.5 20z" />
    <glyph glyph-name="yifu" unicode="&#xe645;" 
d="M761 53h-497v473q-34 -16 -91 -44t-69 -34q-56 112 -63 123q-8 16 -5 25t18 18q20 11 167 102h135q1 -65 70 -98q77 -38 162 -10q40 13 61.5 42t19.5 66h142q24 -18 26 -18q14 -7 63.5 -32t75.5 -39q5 -3 10 -11.5t4 -12.5q-13 -31 -69 -155q-78 39 -155 76
q-3 -46 -3 -48q0 -79 -2 -423v0z" />
    <glyph glyph-name="app" unicode="&#xe616;" 
d="M477 -69q-70 13 -74 14q-139 33 -234 143.5t-107 252.5q-14 149 63 278q4 6 13 11q-98 -162 -61 -339q38 -178 195 -281q124 -82 274 -69.5t264 113.5q75 67 114.5 162t31.5 206t-69 208q10 -9 11 -9q53 -86 63 -183q24 -223 -133 -378q-113 -111 -273 -126q-1 -1 -11 -3
h-67zM547 837q81 -16 86 -17q154 -43 249 -175l6 -9q-2 -1 -3 -3q-10 8 -10 9q-106 143 -271 177q-214 43 -379 -97q-13 -11 -25.5 -24.5t-27.5 -30.5t-23 -26q-4 -5 -11 -6q27 47 73 87q112 98 258 113q1 0 8 2h70zM335 204q-16 7 -16 8q-13 7 -27 15q-10 5 -11.5 10.5
t4.5 15.5q18 31 60 103q60 102 110 185q7 13 12.5 14.5t18.5 -5.5q12 -7 26 -14q10 -7 11.5 -12.5t-4.5 -16.5q-9 -15 -110 -187q-51 -86 -60 -101q0 -1 -14 -15zM524 628q38 8 57 -27q9 -16 145 -255q14 -25 -10 -39q-31 -19 -46 8q-31 56 -49 95q-13 29 -92 204zM373 454
q-51 -91 -65 -116q-3 -5 -10 -5h-82q-17 0 -17 16v89q0 16 15 16h159zM697 454h139q15 0 15 -15q1 -32 1 -90q0 -16 -17 -16q-23 -1 -72 0q-5 0 -7 4l-52 104q-1 2 -7 13zM620 333h-159q13 25 14 27q42 76 45 82q6 12 21 13q26 3 36 -23q4 -10 43 -99zM817 135
q-30 14 -32 15q-18 9 -24 15q-17 15 -11 33q3 8 12.5 13.5t19.5 5.5q21 -1 26 -22q1 -5 9 -60zM743 214q-14 11 -14 12q-5 6 -22 33q-9 14 6 22q21 13 30.5 12t20.5 -26q1 -1 3 -4t2 -5q4 -21 3 -24q-3 -3 -7.5 -6.5t-11.5 -7.5t-10 -6zM254 149q6 51 7 57q2 13 14 6
q21 -11 37 -20q13 -8 1 -16q-17 -12 -48 -32q-10 -7 -11 5zM510 702q8 -6 15.5 -15t12 -16t11.5 -18.5t11 -17.5h-35q-4 0 -5 3q-6 25 -14 56z" />
    <glyph glyph-name="iconfontsousuo1" unicode="&#xe610;" 
d="M746 156q-14 -19 -33 -37l220 -216l36 34zM824 389q0 -104 -49 -190.5t-133.5 -135t-185.5 -48.5q-105 2 -189.5 52.5t-131.5 135.5t-47 186q0 97 49.5 180.5t134.5 132.5t184 49t184.5 -49.5t134.5 -133t49 -179.5zM454 702q-131 0 -224 -93t-93 -226t93 -226.5
t224 -93.5q86 0 160 43t117.5 116.5t43.5 160.5t-43.5 160.5t-117.5 116t-160 42.5z" />
    <glyph glyph-name="bianji" unicode="&#xe74b;" 
d="M928 513l-91 -91l-210 211l90 90q25 25 60.5 25t59.5 -25l91 -90q24 -25 24 -60.5t-24 -59.5v0zM747 332l-210 211l45 45l210 -211l-45 -45v0zM343 -59q-93 -35 -232 -87q-16 -6 -35.5 4t-6.5 42q11 33 39 113.5t38 109.5q11 31 19.5 44.5t29.5 33.5l297 297l210 -211
q-201 -208 -282 -294q-20 -22 -34 -31.5t-43 -20.5v0zM343 -59z" />
    <glyph glyph-name="guanbi" unicode="&#xe612;" 
d="M822 -10q-10 -10 -24 -10t-24 10l-572 573q-10 10 -10 23.5t10 23.5v0q10 10 24 10t23 -10l573 -572q10 -10 10 -24t-10 -24v0zM202 -10q-10 10 -10 24t10 24l572 572q10 10 24 10t24 -10v0q10 -10 10 -23.5t-10 -23.5l-573 -573q-9 -10 -23 -10t-24 10v0z" />
    <glyph glyph-name="fenxiang" unicode="&#xe631;" horiz-adv-x="1088" 
d="M85 -212q-35 0 -60 24.5t-25 58.5v662q0 35 25 59t60 24h212v-63h-212q-9 0 -15 -6t-6 -14v-662q0 -8 6 -13.5t15 -5.5h860q9 0 15.5 5.5t6.5 13.5v238h64v-238q0 -34 -25 -58.5t-61 -24.5h-860v0zM448 18q-2 6 -3.5 21.5t0 56t9 82t29.5 97t56 104.5q128 184 413 249
l-231 124l33 60l333 -181l-195 -309l-57 36l128 203q-256 -60 -368 -220q-65 -92 -79 -213q-7 -61 -1 -107l2 -10l-68 -1l-1 8v0zM457 19q-1 8 -2.5 24t0 55.5t9 80t29 94t53.5 100.5q141 201 471 258l8 -48q-310 -53 -438 -237q-30 -42 -49 -92t-26 -86.5t-8 -76t0 -50.5
t2 -21l-49 -1v0v0zM889 335l-41 26l157 249l-271 146l23 43l317 -171l-185 -293v0zM889 335z" />
    <glyph glyph-name="dingdan" unicode="&#xe622;" 
d="M844 752h-61q-13 0 -24 -7.5t-11 -19.5t11.5 -22.5t23.5 -10.5h61q26 0 43 -17t17 -43v-693q0 -27 -17 -43.5t-43 -16.5h-648q-29 0 -52.5 17t-23.5 43v693q0 26 17 43t43 17h76q23 0 23 33q0 27 -23 27h-76q-60 0 -90 -33.5t-30 -88.5v-685q0 -57 33.5 -91.5t93.5 -34.5
h650q62 0 94.5 32t32.5 94v685q0 54 -32 88t-88 34zM256 480.5q0 -12.5 9 -21.5t22 -9h452q12 0 21 9t9 21.5t-9 21.5t-21 9h-452q-13 0 -22 -9t-9 -21.5zM737 345h-450q-13 0 -22 -9t-9 -21.5t9 -22t22 -9.5h452q12 0 21 9.5t9 21.5q-1 13 -10 22t-22 9zM737 164h-450
q-13 0 -22 -9t-9 -21.5t9 -21.5t22 -9h452q12 0 21 9t9 22q-1 13 -10 21.5t-22 8.5zM408 676h210q18 0 31.5 16t13.5 37t-13.5 36.5t-32.5 15.5h-209q-19 0 -32.5 -15.5t-13.5 -36.5t13.5 -37t32.5 -16z" />
    <glyph glyph-name="gouwuche" unicode="&#xe65e;" horiz-adv-x="1030" 
d="M286 -46q-12 0 -20 8.5t-8 19.5v595q0 12 8 20t20 8h702q12 0 20 -8t8 -20v-263q0 -10 -6 -18t-16 -10l-679 -153v0v0v-151q0 -11 -8.5 -19.5t-20.5 -8.5zM315 548v-357l644 146v211h-644zM286 548q-19 0 -26 18l-82 189h-150q-11 0 -19.5 8.5t-8.5 20t8.5 20t19.5 8.5
h169q19 0 26 -17l89 -207q5 -11 0.5 -22t-15.5 -15q-5 -3 -11 -3zM321 -48h540v-57h-540v57zM258.5 -212q-46.5 0 -80 33t-33.5 79.5t33.5 79.5t80 33t79.5 -33t33 -79.5t-33 -79.5t-79.5 -33zM258 -44q-23 0 -39.5 -16t-16.5 -39t16.5 -39.5t39.5 -16.5t39.5 16.5
t16.5 39.5t-16.5 39t-39.5 16zM916.5 -212q-46.5 0 -79.5 33t-33 79.5t33 79.5t79.5 33t79.5 -33t33 -79.5t-33 -79.5t-79.5 -33zM916.5 -44q-23.5 0 -39.5 -16t-16 -39t16 -39.5t39.5 -16.5t39.5 16.5t16 39.5t-16 39t-39.5 16z" />
    <glyph glyph-name="shouji" unicode="&#xe686;" 
d="M773 114q-7 -7 -16.5 -7t-16.5 7l-72 71q-7 7 -7 16t6.5 15.5t16 6.5t16.5 -6l57 -56l109 107q6 7 15.5 7t16.5 -6.5t7 -16t-7 -16.5zM788.5 409q-88.5 0 -151 -62t-62.5 -149.5t62.5 -149.5t151 -62t151 62t62.5 149.5t-62.5 149.5t-151 62zM787 21q-73 0 -124.5 51.5
t-51.5 123.5t51.5 123t124.5 51t124.5 -51t51.5 -123t-51.5 -123.5t-124.5 -51.5zM620 29v-56q0 -10 -7 -17.5t-17 -7.5h-483q-10 0 -17.5 7.5t-7.5 17.5v150h474q-8 26 -11 53h-463v608q0 10 7.5 17t17.5 7h483q10 0 17 -7t7 -17v-419q23 21 50 37v382q0 30 -22 51.5
t-52 21.5h-483q-31 0 -52.5 -21.5t-21.5 -51.5v-811q0 -31 21.5 -52.5t52.5 -21.5h483q30 0 52 21.5t22 52.5v19q-27 15 -50 37v0zM305 40q0 -20 14.5 -34.5t35 -14.5t34.5 14.5t14 34.5t-14 34.5t-34.5 14.5t-35 -14.5t-14.5 -34.5z" />
    <glyph glyph-name="dianhua" unicode="&#xe602;" 
d="M845 395q-143 238 -332 238q-96 0 -180.5 -62.5t-150.5 -175.5l-153 -264q-25 -56 -21.5 -105.5t27 -86.5t69 -58.5t105.5 -21.5h608q60 0 106 21.5t69.5 58.5t27 86.5t-22.5 105.5v1q-66 120 -152 263v0zM513 128q-86 0 -147 61t-61 147t61 147t147 61t147 -61t61 -147
t-61 -147t-147 -61v0zM52 404q20 -11 39 -7t33.5 14.5t19.5 22.5q40 104 130.5 171.5t205.5 73.5v0q32 3 64 0q115 -6 206 -73.5t130 -171.5q5 -12 19.5 -22.5t33.5 -14.5t39 7q24 15 39 48.5t12 80t-30 85.5q-34 48 -153.5 85t-291.5 38v0q-35 1 -71 0v0q-172 -1 -292 -38
t-154 -85q-27 -39 -30 -85.5t12 -80t39 -48.5v0zM52 404z" />
    <glyph glyph-name="baojianpin" unicode="&#xe609;" 
d="M789 419q-3 41 -34 70t-73 29h-98v98q0 44 -31.5 75.5t-75.5 31.5h-100q-44 0 -75.5 -31.5t-31.5 -75.5v-98h-99q-44 0 -75.5 -31t-31.5 -76v-100q0 -44 31.5 -75.5t75.5 -31.5h99v-96q0 -44 31.5 -75.5t75.5 -31.5h8h50v13q0 19 2 38q13 119 97.5 206.5t204.5 105.5
q24 4 50 4v43v8zM386 52h-9q-24 0 -40.5 16.5t-16.5 39.5v148h-50v-1h-99q-24 0 -40.5 16.5t-16.5 39.5v100q0 24 16.5 40.5t40.5 16.5h99v0h50v148q0 24 16.5 40.5t40.5 16.5h100q24 0 40.5 -16.5t16.5 -40.5v-148h50v0h98q23 0 39 -15.5t17 -37.5q-140 -19 -239.5 -121
t-112.5 -242zM512 -123q-30 0 -44 20q-16 23 -2 63l3 7l92 75l-86 -36l4 41q7 72 48 142q84 144 261 144q70 0 152 -24l16 -4l2 -17q1 -9 2 -22.5t-1 -49.5t-9 -69t-24.5 -73.5t-44.5 -70.5q-77 -86 -214 -86v0q-32 0 -66 5l-51 -38l-4 -1q-16 -6 -34 -6zM510 -72q1 -1 2 -1
q7 0 15 3l60 44l11 -1q36 -6 69 -6v0q115 0 176 69q30 34 46.5 84t18.5 82.5t1 63.5q-65 17 -121 17q-147 0 -217 -118q-21 -35 -33 -78l166 69l26 -42l-219 -177q-1 -6 -1 -9z" />
    <glyph glyph-name="jia" unicode="&#xe61f;" 
d="M0 812v-1024h1024v1024h-1024zM759 257h-204v-204h-69v204h-204v69h204v204h69v-204h204v-69z" />
    <glyph glyph-name="jian" unicode="&#xe620;" 
d="M4 804v-1016h1016v1016h-1016zM757 253h-473v68h473v-68z" />
    <glyph glyph-name="3" unicode="&#xe617;" 
d="M693 -89q-21 0 -40 3q-76 13 -118 59q-21 -6 -43 1q-43 -50 -129 -60q-72 -8 -124 13.5t-57 60.5q-5 30 20.5 54.5t66.5 40.5q-33 41 -47 89q-22 -26 -39.5 -38t-35.5 -7q-18 4 -29 27q-15 25 -11 80.5t29 105.5q16 32 51 70q-13 27 -13 44q0 36 30 61q-2 20 -2 38
q0 129 90 217.5t221 88.5q129 0 220.5 -90t91.5 -216v-9q1 -18 0 -27q26 -19 26 -63q0 -27 -8 -42q13 -19 43 -66l2 -4q24 -38 28.5 -97.5t-10.5 -91.5q-11 -23 -29 -27q-6 -1 -11 -1v0q-34 0 -65 44q-16 -47 -45 -86q42 -17 63.5 -40.5t17.5 -50.5q-4 -34 -45.5 -57.5
t-98.5 -23.5v0zM544 17l9 -12q33 -44 105 -57q17 -3 35 -3q44 0 76 16t34 36q2 15 -20 32.5t-62 29.5l-26 9l19 20q23 23 40.5 58t22.5 67l6 44l34 -51l16.5 -24t14.5 -15t18 -7v0h5q12 9 12 63.5t-24 99.5l-3 5q-34 55 -49 75l-11 15l15 10q6 4 6 26q0 14 -3 22t-6 11t-9 7
l-11 5l2 12q1 9 1 33v9q0 112 -81.5 192t-196.5 80q-117 0 -197 -79t-80 -193q0 -20 4 -43l2 -11l-10 -6q-23 -16 -23 -39q0 -12 13 -39l6 -10l-8 -9q-39 -42 -53 -71q-21 -41 -25.5 -88t7.5 -68q3 -8 6 -9v0q13 0 54 50l35 43l5 -40q3 -33 20 -66.5t42 -58.5l20 -21l-28 -8
q-40 -12 -65 -30.5t-23 -35.5q4 -23 46.5 -37t97.5 -8q82 9 113 56l5 8l13 -1l5 -2q20 -9 36 0l13 8v0z" />
    <glyph glyph-name="yonghu" unicode="&#xe647;" 
d="M381 221q-143 88 -148 243q-4 114 76 197q86 90 206 88.5t204 -92.5q59 -64 70 -150.5t-28 -165.5t-119 -120q22 -9 23 -10q170 -73 231 -245q3 -11 19 -83q1 -6 -1 -14q-5 -19 -23 -18q-20 0 -24 19q-13 64 -14 67q-71 211 -280 248q-182 33 -316 -101
q-83 -84 -100 -207q-3 -22 -19 -26q-12 -3 -21 5t-8 21q9 96 61 177q71 109 191 158q2 1 16 7zM512 240q94 0 161 66t68 159q2 98 -65 165.5t-159 69.5q-94 2 -164 -64t-71 -163q-2 -96 65.5 -164.5t164.5 -68.5z" />
    <glyph glyph-name="zhengque" unicode="&#xe60c;" 
d="M511.5 747q-90.5 0 -173.5 -35.5t-143 -95t-95 -142.5t-35 -174t35 -173.5t95 -142.5t143 -95.5t173.5 -35.5t173.5 35.5t143 95.5t95 142.5t35.5 173.5t-35 174t-95.5 142.5t-143 95t-173.5 35.5zM452 100h-1v0v0l-38 38v0l-179 180l38 37l179 -179l318 318l38 -38z
M512 -147q-91 0 -175 35q-80 34 -142 96t-96 142q-35 83 -35 174t35 174q34 81 96 142.5t142 95.5q84 36 175 36t174 -36q80 -34 142 -95.5t96 -142.5q35 -83 35 -174t-35 -174q-34 -80 -96 -142t-142 -96q-83 -35 -174 -35zM511.5 747q-90.5 0 -173 -35.5t-142.5 -95.5
t-95.5 -142.5t-35.5 -173.5t35.5 -173.5t95.5 -142.5t142.5 -95t173 -35t173.5 35t142.5 95t95 142.5t35.5 173.5t-35.5 173.5t-95 142.5t-142.5 95.5t-173.5 35.5zM451 99v0l-38 39v0l-180 180l39 38l179 -180l318 318l39 -38zM414 138l37 -37v0l355 355l-37 37l-318 -318
l-179 180l-38 -37l180 -180v0z" />
    <glyph glyph-name="cuowu" unicode="&#xe618;" 
d="M511.5 746q-90.5 0 -173.5 -35.5t-142.5 -95t-95 -142.5t-35.5 -174t35.5 -173.5t95 -142.5t142.5 -95t173.5 -35t173.5 35t142.5 95t95 142.5t35.5 173.5t-35.5 174t-95 142.5t-142.5 95t-173.5 35.5zM700 146l-34 -34l-154 154l-154 -154l-34 34l154 154l-154 154
l34 34l154 -154l154 154l34 -34l-154 -154zM512 -148q-91 0 -174 35q-81 34 -142.5 96t-95.5 142q-35 83 -35 174t35 174q34 81 95.5 142.5t142.5 95.5q83 35 174 35t174 -35q80 -34 142 -95.5t96 -142.5q35 -83 35 -174t-35 -174q-34 -80 -96 -142t-142 -96
q-83 -35 -174 -35zM511.5 745q-90.5 0 -173 -35t-142.5 -95t-95 -142.5t-35 -173t35 -173t95 -142.5t142.5 -95.5t173 -35.5t173 35.5t142.5 95.5t95.5 142.5t35.5 173t-35.5 173t-95.5 142.5t-142.5 95t-173 35zM666 111l-154 154l-154 -154l-35 35l154 154l-154 154l35 35
l154 -154l154 154l35 -35l-154 -154l154 -154zM325 146l33 -33l154 154l154 -154l33 33l-154 154l154 154l-33 33l-154 -154l-154 154l-33 -33l154 -154z" />
    <glyph glyph-name="diannao" unicode="&#xe640;" 
d="M925 127h-825q-27 0 -46 19t-19 45v542q0 26 19 45t46 19h825q26 0 45 -19t19 -45v-542q0 -26 -19 -45t-45 -19zM100 759q-11 0 -18.5 -8t-7.5 -18v-542q0 -10 7.5 -18t18.5 -8h825q11 0 18.5 8t7.5 18v542q0 10 -7.5 18t-18.5 8h-825zM464 143h96v-189h-96v189zM685 -64
h-344v21q0 23 16.5 40t40.5 17h229q24 0 41 -17t17 -40v-21zM57 286h908v-39h-908v39zM487 204v0q0 -11 7.5 -18.5t18.5 -7.5t19 7.5t8 18.5v0q0 11 -8 19t-19 8t-18.5 -8t-7.5 -19z" />
    <glyph glyph-name="xinxi2" unicode="&#xe632;" 
d="M510 738q-91 0 -174 -35.5t-143 -95.5t-95.5 -143t-35.5 -174.5t35.5 -174.5t95.5 -143t143 -95.5t174 -35.5t174 35.5t143 95.5t95.5 143t35.5 174.5t-35.5 174.5t-95.5 143t-143 95.5t-174 35.5zM511.5 593q19.5 0 33 -13.5t13.5 -33t-13.5 -33t-33 -13.5t-33 13.5
t-13.5 33t13.5 33t33 13.5zM559 34q0 -20 -14 -34t-33.5 -14t-33.5 14t-14 34v352q0 20 14 34t33.5 14t33.5 -14t14 -34v-352z" />
    <glyph glyph-name="star" unicode="&#xe68a;" 
d="M812 -65q-7 0 -13 3l-287 157l-287 -157q-15 -8 -29 2t-11 27l52 314l-208 208q-12 12 -7 28t21 19l314 52l131 260q7 16 24 16t24 -16l131 -260l314 -52q16 -3 21 -19t-7 -28l-208 -208l52 -314q3 -17 -11 -27q-7 -5 -16 -5v0zM512 154q7 0 13 -4l251 -137l-45 273
q-3 14 7 23l181 181l-275 46q-14 3 -20 15l-112 224l-112 -224q-6 -12 -20 -15l-275 -46l181 -181q9 -9 7 -23l-45 -273l251 137q6 4 13 4z" />
    <glyph glyph-name="wheelchair" unicode="&#xe6a9;" 
d="M957 266q-8 7 -18.5 7t-17.5 -7l-34 -34l-139 136h-1q0 1 -1 1q0 1 -0.5 1h-0.5q0 1 -1 1l-1 1h-0.5h-0.5q0 1 -1 1h-0.5h-0.5l-1 1h-1.5t-1.5 1h-1h-0.5h-0.5h-2v0h-2h-1h-1h-0.5h-1h-0.5h-0.5h-1h-0.5v0l-202 -49q-9 -2 -14 2t-5 12v87h180q10 0 17.5 7.5t7.5 18
t-7.5 18t-17.5 7.5h-180v156q13 -2 26 -2q53 0 90.5 37.5t37.5 90t-37.5 90.5t-90.5 38t-90.5 -38t-37.5 -90q0 -64 51 -103v-317q0 -33 25 -52q17 -14 39 -14q9 0 18 2l188 46l148 -144q7 -7 17 -7q11 0 19 7l51 51q7 8 7 18.5t-7 18.5v0zM529 836q32 0 54.5 -22.5
t22.5 -54t-22.5 -54t-54.5 -22.5t-54.5 22.5t-22.5 54t22.5 54t54.5 22.5zM427 -85q-91 0 -167.5 44.5t-121 121t-44.5 166.5q0 123 80 217q78 92 197 112q11 1 19.5 -5t10.5 -16.5t-4.5 -19t-16.5 -10.5q-102 -17 -168.5 -95.5t-66.5 -181.5q0 -117 82.5 -199.5
t199.5 -82.5q103 0 181.5 66.5t95.5 168.5q2 10 10.5 16t19 4.5t17 -10t4.5 -19.5q-20 -119 -112 -198q-94 -79 -216 -79z" />
    <glyph glyph-name="xingxing" unicode="&#xe626;" 
d="M512 854l152 -307l339 -50l-246 -239l58 -337l-303 159l-303 -159l58 337l-246 239l339 50zM815 -97q-4 0 -8 2l-295 155l-295 -155q-10 -5 -18.5 1.5t-7.5 17.5l57 328l-239 233q-8 8 -4.5 18t14.5 12l330 48l147 299q5 9 16 9t16 -9l147 -299l330 -48q11 -2 14.5 -12
t-4.5 -18l-239 -233l57 -328q1 -11 -7 -18q-5 -3 -11 -3v0zM512 98q4 0 8 -2l272 -143l-52 302q-2 10 5 16l220 214l-304 44q-9 2 -13 10l-136 275l-136 -275q-4 -8 -13 -10l-304 -44l220 -214q7 -6 5 -16l-52 -302l272 143q4 2 8 2z" />
    <glyph glyph-name="touzi" unicode="&#xe64d;" 
d="M884 167q-14 -4 -27 -4t-16 8t-3 28q-2 164 0 244q1 58 -49 86q-46 25 -119 74t-108 70q-49 29 -99 0q-38 -22 -113 -71.5t-120 -74.5q-46 -27 -46 -80q1 -145 0 -297q0 -27 11 -44.5t35 -30.5q47 -26 123.5 -76t113.5 -72q45 -27 88 -2q22 13 121.5 70.5t152.5 89.5
q8 5 18 -5.5t13.5 -23t-0.5 -16.5q-150 -90 -299 -173q-50 -28 -109 6q-49 28 -133 82t-129 80q-28 17 -39 41.5t-11 62.5q-1 124 0 317q0 41 12 68.5t43 45.5q47 26 127.5 78.5t124.5 77.5q66 39 134 -1q42 -25 116 -75.5t120 -77.5q68 -38 67 -119v-286v0zM511 172h-142
v46h140v74h-140q-2 37 -2 48h103q-22 37 -62.5 93.5t-60.5 91.5q28 9 50 3.5t34 -34.5q14 -29 43.5 -71t43.5 -68q14 26 43 65.5t42 67.5q13 29 32 38t52 -1q-20 -33 -60 -88.5t-62 -93.5h94q0 -3 4 -48h-108v-76v0h105q0 -14 2 -46h-109v-121h-40zM884 169q0 -12 -6.5 -20
t-18.5 -8q-22 0 -22 28t22 28q12 0 18.5 -8t6.5 -20v0zM872 62q0 -11 -8 -19t-19 -8t-19 8t-8 19t8 19t19 8t19 -8t8 -19v0zM837 266h47v-99h-47v99v0zM837 266z" />
    <glyph glyph-name="mima" unicode="&#xe669;" 
d="M522 886q-108 0 -180.5 -76.5t-72.5 -190.5v-94h-8q-57 0 -97 -41.5t-40 -99.5v-360q0 -59 40 -100.5t97 -41.5h525q56 0 96.5 41.5t40.5 100.5v360q0 58 -40.5 99.5t-96.5 41.5h-5q-1 0 -4 1v93q0 114 -73 190.5t-182 76.5v0zM522 844q93 0 153.5 -63.5t60.5 -161.5v-93
h-425v93q0 98 60 161.5t151 63.5v0zM881 384v-360q0 -42 -28 -71t-67 -29h-525q-39 0 -67 29t-28 71v360q0 41 28 70t67 29h50v2h425v-2h50q39 0 67 -29t28 -70v0zM881 384zM519 328q-25 0 -43 -18.5t-18 -44.5q0 -36 31 -54v-102q0 -13 8.5 -22t21 -9t21.5 9t9 22v102
q31 18 31 54q-1 26 -18.5 44.5t-42.5 18.5v0zM519 328z" />
    <glyph glyph-name="help-tel" unicode="&#xe638;" 
d="M792 -87q-98 -23 -232 50t-249 212q-73 86 -123 182t-70.5 181t-11.5 157.5t50 114.5q35 37 89 46q6 2 8 3v0q36 8 80 -38.5t71 -120.5q18 -50 20.5 -96t-10.5 -76q-11 -24 -31 -29q-18 -5 -25 -23q-10 -22 5 -56q36 -57 80 -109q47 -56 99 -103l3 -2q17 -13 35 -9
q18 5 34 26l1 2q8 28 42 36q57 14 135 -28q61 -33 98.5 -83.5t29.5 -88.5q-2 -7 -3 -11q-14 -58 -49 -94q-31 -32 -76 -43v0zM243 807q-34 -9 -57 -32q-34 -35 -38.5 -100t16.5 -142t67 -163.5t110 -163.5q108 -129 230.5 -197.5t209.5 -48.5q34 8 57 32q27 27 38 72
q1 6 2 10q3 15 -25 52t-78 64q-64 35 -107 25q-11 -3 -12 -6q-3 -8 -7 -15q-22 -35 -58 -43q-35 -9 -68 15q-3 1 -7 5q-55 50 -104 109q-45 54 -83 112q-2 5 -4 9q-24 54 -7 97q7 16 20.5 28t20.5 15t13 4q1 1 4 7q8 13 5.5 51.5t-17.5 81.5q-15 41 -36.5 72.5t-38 44
t-24.5 10.5q-6 -2 -12 -3l-10 -2v0zM893 511l-43 -1q-7 101 -76 171t-160 68l-4 48q109 3 191.5 -81t91.5 -205v0zM686 496l-43 -1q0 9 -6.5 15.5t-15.5 6.5l-3 48q26 1 46 -19.5t22 -49.5v0zM778 520l-42 -1q-3 44 -33 74t-70 30l-3 47q57 2 100.5 -42t47.5 -108v0z
M778 520z" />
    <glyph glyph-name="shop" unicode="&#xe832;" 
d="M886 809l-8 12h-720l-8 -10q-50 -63 -81.5 -121.5t-44 -100t-14 -80t4 -62t16.5 -44.5q21 -43 62 -65.5t91 -22.5h5q57 2 102 19.5t68 40.5q21 -24 64.5 -41.5t95.5 -17.5q55 0 101.5 19.5t66.5 43.5q31 -25 79 -44.5t95 -18.5q38 1 66 10.5t50 34.5q24 28 32 68t3.5 78
t-19.5 84t-30 79t-35 69t-27.5 47.5t-14.5 22.5zM941 393q-27 -32 -80 -32q-43 0 -87 23.5t-65 43.5l1 187v0.5v1.5q0 11 -5.5 18.5t-16.5 7.5t-16.5 -7.5t-5.5 -18.5h-1v-190q-14 -19 -58 -42.5t-87 -23.5q-47 0 -87 23.5t-51 41.5v191q0 11 -6.5 18.5t-17.5 7.5
q-20 0 -20 -26v-190q-15 -19 -56.5 -41t-94.5 -24h-3v0q-32 0 -64.5 15t-48.5 48q-11 22 -14.5 50t2 71.5t34.5 103.5t81 127h682q18 -29 37 -65t37.5 -83t28.5 -89.5t6.5 -82.5t-24.5 -64zM901 274q-18 0 -18 -27v0v0v0v-201q0 -22 -15.5 -39t-37.5 -17h-273v0h-363
q-22 0 -37.5 17t-15.5 39v201q0 27 -21 27q-11 0 -17 -8t-6 -19v-198q0 -42 30 -72t72 -30h627q42 0 71.5 30t29.5 72v198q0 11 -7.5 19t-18.5 8v0z" />
    <glyph glyph-name="caidan" unicode="&#xe614;" 
d="M1008 766q0 -10 -7.5 -17.5t-17.5 -7.5h-758q-10 0 -17.5 7.5t-7.5 17.5v1q0 10 7.5 17.5t17.5 7.5h758q10 0 17.5 -7.5t7.5 -17.5v-1v0zM1008 387q0 -10 -7.5 -17.5t-17.5 -7.5h-758q-10 0 -17.5 7.5t-7.5 17.5v1q0 10 7.5 17.5t17.5 7.5h758q10 0 17.5 -7.5t7.5 -17.5
v-1v0zM1008 8q0 -10 -7.5 -17.5t-17.5 -7.5h-758q-10 0 -17.5 7.5t-7.5 17.5v1q0 10 7.5 17.5t17.5 7.5h758q10 0 17.5 -7.5t7.5 -17.5v-1v0zM90 770.5q0 -15.5 -11 -26.5t-26.5 -11t-26.5 11t-11 26.5t11 26.5t26.5 11t26.5 -11t11 -26.5zM90 391.5q0 -15.5 -11 -26.5
t-26.5 -11t-26.5 11t-11 26.5t11 26.5t26.5 11t26.5 -11t11 -26.5zM90 12.5q0 -15.5 -11 -26.5t-26.5 -11t-26.5 11t-11 26.5t11 26.5t26.5 11t26.5 -11t11 -26.5z" />
    <glyph glyph-name="yiliaoyongpin" unicode="&#xe619;" 
d="M624 338h-110v131q0 13 -9.5 22.5t-22.5 9.5t-22.5 -9.5t-9.5 -22.5v-131h-111q-13 0 -22.5 -9.5t-9.5 -22.5t9.5 -22.5t22.5 -9.5h111v-131q0 -14 9.5 -23t22.5 -9t22.5 9t9.5 23v131h110q14 0 23 9.5t9 22.5t-9 22.5t-23 9.5zM979 101l-53 57v0l-15 16q0 1 0.5 1.5
t0.5 1.5v389q0 60 -43 102.5t-104 42.5h-130q-2 67 -50 114t-115.5 47t-115.5 -47t-50 -114h-139q-60 0 -103 -42.5t-43 -102.5v-479q0 -60 43 -102.5t103 -42.5h600q39 0 74 20q27 -25 62 -26h4q38 0 66 25l3 3q29 27 30.5 67.5t-25.5 69.5zM469.5 808q40.5 0 70 -28
t31.5 -69h-203q2 41 31.5 69t70 28zM165 6q-34 0 -58 24t-24 57v479q0 34 24 57.5t58 23.5h139v-19q0 -13 9 -22.5t22.5 -9.5t23 9.5t9.5 22.5v19h204v-19q0 -13 9 -22.5t22.5 -9.5t23 9.5t9.5 22.5v19h129q34 0 58.5 -23.5t24.5 -57.5v-323l-23 24q-27 30 -67 31
q-41 1 -70 -25l-3 -3q-29 -27 -30.5 -67.5t25.5 -69.5l55 -60v0l22 -24l36 -38q-14 -5 -28 -5h-600v0zM833 164l-51 -47l-55 59q-9 10 -8.5 24t10.5 23l2 3q10 9 24 8.5t23 -10.5zM930 11l-2 -3q-10 -9 -24 -8.5t-23 10.5l-53 57l51 48l53 -57q9 -10 8.5 -24t-10.5 -23z" />
    <glyph glyph-name="gou" unicode="&#xe613;" 
d="M911 691l-498 -498l-253 253l-45 -46l252 -252v-1l46 -45l543 544z" />
    <glyph glyph-name="remenchengshi" unicode="&#xe642;" 
d="M910 510q0 103 -51 191t-139 139t-191.5 51t-191.5 -51t-139 -139t-51 -191q0 -124 74 -224h-1l309 -414l301 405v0q80 103 80 233zM528.5 689q74.5 0 127 -52.5t52.5 -127t-52.5 -126.5t-127 -52t-127 52t-52.5 126.5t52.5 127t127 52.5z" />
    <glyph glyph-name="multichecked" unicode="&#xe60a;" 
d="M865 832h-708q-39 0 -66 -27.5t-27 -65.5v-708q0 -39 27 -66t66 -27h708q39 0 66 27t27 66v708q0 38 -27 65.5t-66 27.5zM752 505l-302 -302q-11 -11 -23 1l-21 20l-135 136q-5 5 -5 12t5 13l37 37q5 5 12 5t12 -5l107 -107l252 252q10 10 23 -2l37 -37q12 -12 1 -23z
" />
    <glyph glyph-name="shenfen" unicode="&#xe6b3;" 
d="M121 797q-52 0 -85.5 -33.5t-33.5 -85.5v-577q0 -52 33.5 -85.5t85.5 -33.5h781q52 0 85.5 33.5t33.5 85.5v577q0 52 -33.5 85.5t-85.5 33.5h-781zM902 33h-781q-32 0 -50 17.5t-18 50.5v577q0 32 18 50t50 18h781q33 0 50.5 -18t17.5 -50v-577l-11 -28q-21 -40 -57 -40z
M620 491h174q10 0 16.5 7.5t6.5 18t-6.5 18t-16.5 7.5h-174q-9 0 -16 -7.5t-7 -18t7 -18t16 -7.5v0zM620 355h174q10 0 16.5 7.5t6.5 18t-6.5 18t-16.5 7.5h-174q-9 0 -16 -7.5t-7 -18t7 -18t16 -7.5v0zM879 270h-259q-9 0 -16 -7.5t-7 -18t7 -18t16 -7.5h259q9 0 16 7.5
t7 18t-7 18t-16 7.5v0zM488 304q-42 45 -102 62l-4 1l3 2q32 17 50.5 47t18.5 66q0 53 -38 90.5t-91.5 37.5t-91.5 -37.5t-38 -90.5q0 -36 18.5 -66t50.5 -47l3 -2l-4 -1q-60 -17 -102 -62q-44 -46 -55 -107q-2 -10 3.5 -18t14.5 -9q3 -1 5 -1q8 0 14.5 5.5t8.5 13.5
q12 60 60.5 96.5t112.5 36.5t112 -36.5t60 -96.5q1 -9 8 -14t15 -5h4q10 2 15.5 10t3.5 17q-11 62 -55 108v0zM325 559q35 0 60 -25t25 -60t-25 -60t-60 -25t-60 25t-25 60t25 60t60 25v0zM325 559z" />
    <glyph glyph-name="shape" unicode="&#xe67c;" horiz-adv-x="1356" 
d="M223 894q6 2 30 2h449h448q10 0 18.5 -6.5t11.5 -16.5q33 -98 93 -277.5t79 -236.5q1 -5 2 -31v-202.5v-202.5q-1 -18 -10 -26q-7 -8 -26 -8h-1242q-29 0 -37 8q-10 9 -9 38v404q-2 12 8 39l77 231l88 264q5 17 20 21v0zM252 838q-71 -213 -154 -460h386q18 -1 25 -8
q10 -8 11 -31q1 -38 20 -72.5t50 -56.5q49 -36 110 -33q73 3 121 58q41 46 43 107q1 19 9 27t27 9h121h142.5h121.5q-91 272 -154 460h-879v0zM87 320v-374h1209v374h-376q-6 -51 -35.5 -96t-73.5 -72q-72 -44 -157 -30q-80 13 -134 74q-48 53 -57 124h-376v0z" />
    <glyph glyph-name="baozhang" unicode="&#xe678;" 
d="M484 588h191v-85h-191v85zM881 769h-26v0q-62 0 -118 11t-90.5 24.5t-62.5 30.5t-37.5 25t-12.5 12l-22 24l-22 -24q-5 -5 -13.5 -12.5t-39.5 -26t-67.5 -32.5t-97.5 -24t-129 -8l-31 1v-462q0 -42 6.5 -78.5t30 -86t64 -92t114.5 -89.5t174 -86l11 -4l11 4
q100 39 174 86t114.5 89.5t64 92t30 86t6.5 78.5v462zM785 216q-16 -22 -26 -38l-6 -10l-9 6q-83 50 -135 130v-173h-61v176q-59 -92 -142 -143l-8 -6l-6 8q-12 15 -29 31l-2 2v-65h-60v261q-13 -22 -27 -42l-13 -19l-7 22q-7 21 -16 42l-2 6l3 5q69 103 108 251l3 12
l61 -19l-4 -10q-21 -69 -46 -129v-301l4 2q83 45 137 123h-128v58h174v49h-64v-24h-62v225h316v-221h-63v20h-66v-49h174v-58h-134q47 -65 131 -105l13 -6z" />
    <glyph glyph-name="zhishi" unicode="&#xe61a;" 
d="M112 240q-11 0 -18.5 -8t-7.5 -18v-49q0 -11 7.5 -18.5t18.5 -7.5t19 7.5t8 18.5v49q0 10 -8 18t-19 8zM991 559l-475 211q-11 5 -22 0l-462 -222q-16 -7 -15.5 -24.5t16.5 -23.5l53 -22v-0.5v-0.5v-189q0 -11 7.5 -19t18.5 -8t19 8t8 19v168l50 -21v-272v-2.5v-2.5
q0 -38 30 -71q41 -43 118.5 -67t174.5 -25q129 0 221 43q46 21 72 49q30 33 30 71v3v2v279l156 69q16 6 16 23.5t-16 24.5zM766 123q-28 -32 -98.5 -53.5t-155.5 -21.5q-117 0 -199 38q-36 16 -55 37q-16 17 -16 34v4v7v63q22 -18 54 -33q90 -41 216 -41q25 0 50 2
q6 0 10.5 5t4 11.5t-5.5 11t-12 3.5q-23 -2 -47 -2q-119 0 -203 39q-48 22 -67 50v136l261 -109l2.5 -1l2.5 -1h1.5h0.5h3v0h4h0.5h1.5q2 1 5 2l258 114v-141q-7 -11 -20 -21q-32 -28 -90 -46q-6 -1 -9 -7t-2 -12q4 -11 16 -11h4q64 20 101 51v-63v-7v-4q0 -17 -16 -34z
M798 483v0l-285 -126l-288 120v0l-117 49l398 191l410 -182z" />
    <glyph glyph-name="fanhuidingbu" unicode="&#xe605;" 
d="M130 412l371 371q4 5 11 5t11 -5l371 -371q6 -6 17.5 -6t16.5 6q17 17 0 34l-377 371q-17 17 -45 17t-45 -17l-371 -371q-4 -4 -4 -14.5t4 -19t17.5 -8.5t22.5 8zM90 243h96v-303h45v303h95v34h-236v-34zM501 283q-76 0 -118 -51q-45 -54 -45 -129q0 -70 45 -124
q45 -45 112 -45q76 0 118 51q45 54 45 129q0 70 -45 124q-30 45 -112 45zM585 7q-34 -34 -84 -34q-53 0 -85 40q-33 33 -33 101q0 59 33 101q40 40 85 40q50 0 84 -34q28 -28 28 -101q0 -66 -28 -113zM906 255q-38 28 -85 28h-95v-338h45v130h45q52 0 90 28q34 33 34 79
q0 47 -34 73zM872 125q-17 -17 -62 -17h-39v135h45q78 0 78 -67q0 -28 -22 -51z" />
    <glyph glyph-name="danxuan" unicode="&#xe6c3;" 
d="M512 813q-117 0 -216 -57.5t-156.5 -156.5t-57.5 -215.5t57.5 -216t156.5 -157t216 -57.5t216 57.5t156.5 156.5t57.5 216t-57.5 216t-156.5 156.5t-216 57.5v0zM512 11q-101 0 -187 49.5t-136 135.5t-50 187.5t50 187t136 135.5t187 50t187 -50t136 -135.5t50 -187
t-50 -187.5t-136 -135.5t-187 -49.5v0zM512 11zM512 813q-117 0 -216 -57.5t-156.5 -156.5t-57.5 -215.5t57.5 -216t156.5 -157t216 -57.5t216 57.5t156.5 156.5t57.5 216t-57.5 216t-156.5 156.5t-216 57.5v0zM512 11q-101 0 -187 49.5t-136 135.5t-50 187.5t50 187
t136 135.5t187 50t187 -50t136 -135.5t50 -187t-50 -187.5t-136 -135.5t-187 -49.5v0zM512 11z" />
    <glyph glyph-name="danxuanon" unicode="&#xe6c4;" 
d="M512 816q-118 0 -218 -58t-158 -158t-58 -218t58 -217.5t158 -157.5t218 -58t218 58t158 157.5t58 217.5t-58 218t-158 158t-218 58v0zM793 535v0l-351 -347h-3l-208 203v1q-6 7 -6 17q0 12 8.5 20.5t20.5 8.5q10 0 18 -7q2 -2 3 -2l165 -165l311 311q9 10 21 10
t20.5 -8.5t9 -20.5t-8.5 -21v0zM793 535z" />
    <glyph glyph-name="pingjia" unicode="&#xe62e;" horiz-adv-x="1039" 
d="M1023 738q0 34 -23 58t-56 24h-864q-33 0 -56 -24t-23 -58v-599q0 -34 23 -58t56 -24h327l105 -109l104 109h328q33 0 56 24t23 58v98h-1q0 10 -7.5 17.5t-18 7.5t-18 -7.5t-7.5 -17.5h-1v-71q0 -22 -15 -38t-37 -16h-328l-78 -82l-78 82h-328q-22 0 -37 16t-15 38v545
q0 23 15 39t37 16h812q22 0 37 -16t15 -39v-259h1l-0.5 -1t-0.5 -2q0 -11 8 -19t18.5 -8t18.5 8t8 19q0 1 -0.5 2l-0.5 1h1v286v0zM769 372h-492q-9 0 -16 -7.5t-7 -18t7 -18.5t16 -8h492q10 0 17 8t7 18.5t-7 18t-17 7.5v0zM769 546h-492q-9 0 -16 -7.5t-7 -18t7 -18
t16 -7.5h492q10 0 17 7.5t7 18t-7 18t-17 7.5v0z" />
    <glyph glyph-name="shipin-copy" unicode="&#xe600;" horiz-adv-x="1134" 
d="M95 684h339q9 1 11 9l31 102q21 42 63 38l222 1v-44h-211q-22 -3 -29 -22l-21 -70q-4 -15 8 -14h71l-40 -663h-400zM198 -66l793 4q10 1 26 2t22.5 1.5t16 4t13 9.5t7 17t4.5 28l-997 -4q1 -18 7 -29.5t13 -18t24 -9.5t28 -3.5t36 -1.5h7v0zM658 22l313 2q41 5 55.5 28
t16.5 77h-458q-2 -53 12.5 -76.5t60.5 -30.5v0zM634 286q-58 -4 -62 -64q4 -55 63 -63q27 2 46 20q22 -18 49 -20q28 0 42 16q13 -15 43 -15t46 15q15 -16 43 -17q23 4 42 16q19 -18 49 -15q59 13 56 70q-9 55 -60 57q-23 3 -48 -17q-17 19 -44 15q-21 5 -42 -14
q-13 14 -39 15q-25 2 -42 -15q-2 -2 -4 0q-16 17 -47 17q-25 0 -42 -21q-22 24 -49 20v0zM685 426q-104 -11 -100 -111h457q-5 102 -92 111h-265zM144 632l6 -126q3 -10 13 -9l221 2q8 1 10 8l33 122q-1 8 -7 8h-270q-6 0 -6 -5v0zM526 507l6 122q-2 8 -9 8l-33 1
q-8 -1 -10 -8l-34 -121q1 -8 7 -8h66q6 1 7 6z" />
    <glyph glyph-name="z-camera" unicode="&#xe673;" 
d="M512 524q83 0 142 -59t59 -142.5t-59 -142.5t-142 -59t-142 59t-59 142.5t59 142.5t142 59zM512 566q-101 0 -172 -71t-71 -172t71 -172t172 -71t172 71t71 172t-71 172t-172 71v0zM776 555q0 -15 10.5 -26t25.5 -11t25.5 11t10.5 26t-10.5 25.5t-25.5 10.5t-25.5 -10.5
t-10.5 -25.5zM931 713h-169v0q-25 4 -34 28q-4 10 -10 20v0q-5 11 -13 20v0q-24 31 -61 45v1q-7 2 -13 3v0q-2 1 -4 1v0q-1 1 -3 1v0h-3h-1q-1 1 -3 1v0h-3h-0.5h-0.5q-2 1 -3 1h-0.5h-0.5h-3v0h-1h-2h-3h-1h-171h-1h-2h-3h-0.5h-0.5h-3v0h-1t-2 -1h-0.5h-0.5h-3h-1
q-1 0 -3 -1v0h-3v0q-2 0 -4 -1v0q-2 0 -3 -1v0q-48 -11 -78 -49v0q-8 -9 -13 -20v0q-6 -10 -10 -20q-9 -24 -34 -28v0h-169q-26 0 -48 -13v0q-1 -1 -3 -2v0v-1q-2 0 -3 -2h-0.5h-0.5q-1 -1 -3 -2v-0.5t-1 -0.5l-2 -2q-1 0 -1 -1q-1 0 -2 -2q-1 0 -1 -1q-1 0 -2 -2
q-1 0 -1 -1l-2 -2l-1 -1l-2 -2q0 -1 -1 -1q-1 -2 -2 -3l-1 -1q0 -1 -1 -2q0 -1 -1 -2t-1 -2q-1 0 -1.5 -1.5t-0.5 -2.5q-1 0 -1.5 -1.5t-1 -2t-1 -2t-0.5 -2t-1 -2.5q-1 -1 -1 -2l-0.5 -1.5t-0.5 -2.5t-0.5 -2.5t-1 -2t-0.5 -2v-2.5q-1 0 -1 -2v-2q0 -1 -1 -3v-1v-1v-3v-0.5
v-1.5v-4v-593q0 -38 27 -65.5t66 -27.5h838q39 0 66 27.5t27 65.5v593q0 38 -27 65.5t-66 27.5zM982 27q0 -21 -15 -36t-36 -15h-838q-21 0 -36 15t-15 36v593v2v0.5v0.5v2v1v1q0 1 0.5 1.5t0.5 1.5v1v1l0.5 1t0.5 1.5v1t1 1.5v1l0.5 1t0.5 1.5t0.5 1t0.5 1t0.5 1t0.5 1
t0.5 0.5h0.5v1.5t1 0.5q0 1 0.5 1.5l0.5 0.5v0q2 3 4 5v0l1 1v0v1q1 0 2 1v0l1 1l1 1q1 0 1 1h1q0 1 1 1.5l1 0.5l1 1h1q0 1 1 1h0.5h0.5q0 1 1 1h1l1 1h1l1 1h1q1 1 2 1v0q5 2 11 3v0h6h162h1q27 0 49.5 16t31.5 41q2 7 5 13v0l1 1t1.5 2l1 2t0.5 2l2 2t1.5 2t1 1.5t1.5 2
l1 1.5l2 2l2 2q0 1 1 2h1v1q2 1 3 2l0.5 0.5l0.5 0.5l2 2l1 1q2 1 3 2l1 1h1l2 2q1 0 1 1q2 1 3 2h0.5h0.5q2 1 3 2l1 1q2 0 3 1h0.5h0.5l4 2l1 1q1 0 3 1h0.5h0.5l4 2h0.5h0.5q1 0 3 1h0.5h0.5q2 1 4 1h0.5h0.5q2 1 4 1h1q2 0 4 1h0.5h0.5h4h1h4v0h168v0h4h2h3h0.5h0.5
q2 -1 4 -1h0.5h0.5q2 0 4 -1h0.5h0.5q2 0 4 -1h0.5h0.5q2 -1 3 -1h0.5h0.5l4 -2h0.5h0.5q2 -1 3 -1l1 -1l4 -2h0.5h0.5q1 -1 3 -1l1 -1q1 -1 3 -2h0.5h0.5q1 -1 3 -2q0 -1 1 -1.5t2 -1.5h1l1 -1t3 -2l1 -1l2 -2l0.5 -0.5l0.5 -0.5q1 -1 3 -2l1 -1t1.5 -2t1.5 -2l2 -2
q0 -1 1 -2l1.5 -1.5t1 -1.5t1.5 -2t1.5 -2l1 -2t1.5 -2t1 -2l1 -1v0q3 -6 5 -13q9 -25 31.5 -41t49.5 -16h1v0h162q21 0 36 -15t15 -36v-593v0v0z" />
    <glyph glyph-name="dianshi" unicode="&#xe628;" 
d="M923 609h-392l157 233l-31 22l-173 -255h-101l-165 246l-33 -23l151 -223h-235q-25 0 -42 -17t-17 -41v-588q0 -24 17 -41.5t42 -17.5h822q25 0 42 17.5t17 41.5v588q0 24 -17 41t-42 17zM943 -37q0 -8 -6 -14t-14 -6h-822q-8 0 -14 6t-6 14v588q0 8 6 13.5t14 5.5h822
q8 0 14 -5.5t6 -13.5v-588zM727 492h-509q-24 0 -41.5 -17.5t-17.5 -41.5v-353q0 -24 17.5 -41t41.5 -17h509q25 0 42 17t17 41v353q0 24 -17 41.5t-42 17.5zM747 80q0 -8 -5.5 -13.5t-14.5 -5.5h-509q-8 0 -13.5 5.5t-5.5 13.5v353q0 8 5.5 14t13.5 6h509q9 0 14.5 -6
t5.5 -14v-353zM825 452.5q0 -16.5 11.5 -28t28 -11.5t28 11.5t11.5 28t-11.5 28t-28 11.5t-28 -11.5t-11.5 -28zM825 335q0 -16 11.5 -27.5t28 -11.5t28 11.5t11.5 27.5t-11.5 27.5t-28 11.5t-28 -11.5t-11.5 -27.5z" />
    <glyph glyph-name="yibannashuirenshangmen" unicode="&#xe75f;" 
d="M563 102q0 96 67.5 163.5t163.5 67.5q25 0 47 -5v311q0 20 -13 37.5t-31 22.5l-387 100q-35 9 -60.5 -4.5t-25.5 -42.5v-65l-133 17q-41 5 -68 -19q-25 -22 -25 -54v-473q0 -32 25 -54q23 -20 56 -20q4 0 12 1l133 17v-66q0 -29 25.5 -43t60.5 -4l164 42q-11 36 -11 71z
M324 170l-141 -17q-10 -2 -16 4l1 475q4 3 11 3h4l141 -18v-447zM470 370q0 -17 -12 -28.5t-28 -11.5t-27.5 11.5t-11.5 28.5v68q0 17 11.5 28.5t27.5 11.5q17 0 28.5 -12t11.5 -28v-68zM786 279q-70 0 -120 -50t-50 -120.5t50 -120t120 -49.5t120 49.5t50 120t-50 120.5
t-120 50zM785.5 16h-24.5t-20 2.5t-17.5 6.5t-9.5 12.5t-4 20.5q0 43 36 65q-9 13 -9 29q0 20 14.5 34.5t35 14.5t35 -14.5t14.5 -34.5q0 -16 -10 -29q37 -22 37 -65q0 -12 -4.5 -20.5t-10 -12.5t-17.5 -6.5t-20.5 -2.5h-25z" />
    <glyph glyph-name="jigou" unicode="&#xe6ae;" 
d="M831 493q-10 0 -18 6.5t-11 16.5q-24 101 -105 164.5t-185 63.5t-185 -64t-106 -164q-3 -12 -13 -18.5t-22 -3.5t-18.5 13.5t-3.5 21.5q30 121 127 197.5t221 76.5t221 -76.5t127 -197.5q2 -12 -4 -22t-18 -13q-5 -1 -7 -1zM912 484h-800q-13 0 -21.5 9t-8.5 21t9 20.5
t21 8.5h801q12 0 20.5 -8.5t8.5 -20.5q0 -13 -8.5 -21.5t-21.5 -8.5zM182.5 -35q-12.5 0 -21 8.5t-8.5 20.5v501q0 12 8.5 20.5t20.5 8.5t20.5 -8.5t8.5 -20.5v-500q0 -12 -8 -21t-20.5 -9zM842 -35q-12 0 -20.5 8.5t-8.5 20.5v501q0 12 8.5 20.5t20.5 8.5t20.5 -8.5
t8.5 -20.5v-500q0 -12 -8.5 -21t-20.5 -9zM402 -35q-12 0 -20.5 8.5t-8.5 20.5v501q0 12 8.5 20.5t20.5 8.5t20.5 -8.5t8.5 -20.5v-500q0 -12 -8.5 -21t-20.5 -9zM622 -35q-12 0 -20.5 8.5t-8.5 20.5v501q0 12 8.5 20.5t20.5 8.5t20.5 -8.5t8.5 -20.5v-500q0 -12 -8.5 -21
t-20.5 -9zM292 164q-12 0 -20.5 9t-8.5 21v117q0 12 8.5 20.5t20.5 8.5t21 -8.5t9 -20.5v-117q0 -13 -9 -21.5t-21 -8.5zM512 164q-12 0 -20.5 9t-8.5 21v117q0 12 8.5 20.5t20.5 8.5t20.5 -8.5t8.5 -20.5v-117q0 -13 -8.5 -21.5t-20.5 -8.5zM731.5 164q-12.5 0 -21 9
t-8.5 21v117q0 12 9 20.5t21 8.5t20.5 -8.5t8.5 -20.5v-117q0 -13 -8.5 -21.5t-21 -8.5zM912 -35h-800q-13 0 -21.5 8.5t-8.5 20.5t9 21t21 9h801q12 0 20.5 -9t8.5 -21t-8.5 -20.5t-21.5 -8.5z" />
    <glyph glyph-name="iconwifi" unicode="&#xe615;" 
d="M965 479q-88 87 -202 135q-118 50 -247 50t-247 -50q-114 -48 -202 -135l-51 51q98 97 225 151q131 55 275 55t275 -55q127 -54 225 -151zM311 514q98 41 205 41t204 -41q95 -40 167 -112l-51 -51q-64 64 -146.5 98t-173.5 34t-173.5 -34t-147.5 -98l-51 51
q73 72 167 112zM516 373q142 0 242 -100l-51 -51q-79 79 -191 79t-191 -79l-51 51q100 100 242 100zM515.5 199q69.5 0 119.5 -49l-119 -118l-119 118q49 49 118.5 49z" />
    <glyph glyph-name="yiyaoxiang" unicode="&#xe851;" 
d="M874 -7h-724q-36 0 -62 26t-26 62v416q0 36 26 62t62 26h724q36 0 62 -26t26 -62v-416q0 -36 -26 -62t-62 -26zM150 544q-19 0 -33 -14t-14 -33v-416q0 -20 14 -34t33 -14h724q19 0 33 14t14 34v416q0 19 -14 33t-33 14h-724zM761 544h-498q-8 0 -14 6t-6 15v163
q0 19 14 33t34 14h443q19 0 33 -14t14 -33v-163q0 -9 -6 -15t-14 -6zM284 585h456v143q0 6 -7 6h-442q-7 0 -7 -6v-143v0zM569 85h-114q-7 0 -12 6t-5 14v108h-105q-8 0 -13.5 5.5t-5.5 13.5v115q0 8 5.5 12.5t13.5 4.5h105v108q0 8 5 13t12 5h114q7 0 12 -5t5 -13v-108h105
q8 0 13.5 -4.5t5.5 -12.5v-115q0 -8 -5.5 -13.5t-13.5 -5.5h-105v-108q0 -8 -5 -14t-12 -6zM474 121h76v111q0 7 5.5 12t13.5 5h103v79h-103q-8 0 -13.5 6t-5.5 13v107h-76v-107q0 -7 -5.5 -13t-13.5 -6h-105v-79h105q8 0 13.5 -5t5.5 -12v-111z" />
    <glyph glyph-name="lvyouchuxing" unicode="&#xe61c;" 
d="M444 206q2 12 2 24q0 18 -3 35q-12 60 -60 99.5t-110 39.5q-72 0 -122.5 -51t-50.5 -123q0 -27 8 -54q7 -19 18 -37q19 -1 31 12q-14 19 -20 42q-5 18 -5 37q0 58 41.5 99.5t99.5 41.5q50 0 88 -31t49 -78q4 -16 4 -32q0 -12 -2 -23q8 -1 19 0t13 -1zM1012 655q-1 2 -3 4
q-55 83 -147.5 116t-184.5 4q-42 13 -86 13q-119 0 -202.5 -85t-83.5 -206q0 -12 12 -15q15 -5 21 10q17 50 51.5 88t79.5 60q-10 -79 21.5 -153t97.5 -122q2 -2 5 -3q9 -3 17.5 5t3.5 19q-33 66 -28.5 135.5t42.5 127.5q-3 -100 55 -180q-3 -81 -18 -167q-8 -48 -20 -94
q-69 8 -140 8q-137 0 -248.5 -29.5t-163.5 -77.5q-21 -12 -26 -35q-1 -3 -1 -8q0 -22 14.5 -37.5t35.5 -17.5v0h1q2 -1 3.5 -1t3.5 1h770q2 -1 4 -1t5 1h1v0q21 2 35 18t14 37q0 7 -2 11q-2 8 -6 15q-5 9 -13 16q-38 33 -109 59q10 75 10 154q0 124 -23 230q36 -43 52 -97
q3 -10 13 -11q15 -3 19 10q1 2 1 5q18 115 -48 211q76 1 140 -38q9 -6 17 0q13 7 8 20zM900 48h-782q-8 1 -13.5 7t-5.5 15q1 4 3 8q34 47 146 77.5t257 30.5q77 0 149 -9q17 -2 19 11q0 1 1 2q9 34 16 69l52 -9q3 -1 6 -1q6 0 11 4.5t5 11.5t-4.5 12t-11.5 5v0l-51 9
q1 7 1 9q7 39 11 77l36 3q3 0 6 1q6 2 9.5 8t1.5 12q-4 15 -19 12l-31 -3q2 26 3 51q6 7 4 16l-4 26q0 21 -2 41q2 38 15 74q21 -10 40 -25q30 -109 32 -250l-49 4q-7 2 -12.5 -1.5t-7.5 -10t1.5 -12.5t10.5 -8q3 -1 7 0l50 -5q-1 -80 -11 -154q-2 -3 -2 -6q0 -9 -6.5 -15.5
t-15.5 -6.5h-1h-64h-2q-6 0 -11 -5t-5 -12t5 -12t11 -5h1v0h62h4q20 0 35 13t18 33q61 -21 91 -48q3 -5 5 -9q5 -6 5 -15v0q0 -8 -5.5 -13.5t-13.5 -6.5zM785 697h-5q-6 -2 -9.5 -8t-2 -12.5t7.5 -10t13 -2.5l4 2q8 2 17 3q47 -59 54 -134q-35 58 -93 96q-20 12 -41 21
q-6 6 -12 9.5t-6 2.5v0q-29 -58 -31 -122q-32 75 -16 155q5 7 3 15q-2 6 -8 9.5t-13 2.5q-1 -1 -3 -2v0v0q-4 -2 -7 -6q-53 -54 -73.5 -128.5t-2.5 -148.5q-39 45 -54 103t-3 115q10 3 21 6h5q1 1 3 1v0v0q12 6 9 20q-2 6 -8 9.5t-13 2.5q-1 -1 -3 -1q-13 -3 -26 -7v0
q-7 -2 -14 -5q-73 -27 -123 -86q29 72 93 117.5t143 45.5q68 0 126 -34q7 -11 19 -7q6 1 9.5 7t1.5 13q-2 9 -11 12q-4 3 -9 6q57 8 112 -9t98 -56q-75 23 -152 5z" />
    <glyph glyph-name="zixun" unicode="&#xe61b;" 
d="M901 77v287q0 8 6 14t14.5 6t14.5 -6t6 -14v-287q0 -43 -30 -73t-72 -30h-676q-34 0 -58 24t-24 58v656q0 34 24 58t58 24h573q34 0 58 -24t24 -58v-697h21q25 0 43 18t18 44zM819 15h-41v697q0 17 -12 29t-29 12h-573q-17 0 -29 -12t-12 -29v-656q0 -17 12 -29t29 -12
h655zM287 589h82q25 0 43 -18t18 -44v-102q0 -25 -18 -43t-43 -18h-82q-26 0 -44 18t-18 43v102q0 26 18 44t44 18v0v0zM266 425q0 -8 6 -14.5t15 -6.5h82q8 0 14 6.5t6 14.5v102q0 9 -6 15t-14 6h-82q-9 0 -15 -6t-6 -15v-102v0zM492 486q0 9 6 15t14 6h164q8 0 14 -6
t6 -14.5t-6 -14.5t-14 -6h-164q-9 0 -14.5 6t-5.5 14v0zM225 220q0 9 6 15t15 6h430q8 0 14 -6t6 -14.5t-6 -14.5t-14 -6h-430q-9 0 -15 6t-6 14v0z" />
    <glyph glyph-name="radio" unicode="&#xe611;" 
d="M877 844h-730q-34 0 -58 -24t-24 -58v-732q0 -34 24 -58t58 -24h730q34 0 58 24t24 58v732q0 34 -24 58t-58 24zM911 57q0 -25 -18 -43t-43 -18h-676q-25 0 -43 18t-18 43v678q0 25 18 43t43 18h676q25 0 43 -18t18 -43v-678z" />
    <glyph glyph-name="duihuakuang" unicode="&#xe62f;" horiz-adv-x="1122" 
d="M-77 774l-1 18l-2 -19l1 -8v-20v0q0 -7 1 -7v0v7v0v20zM-78 787v-13v-14l-1 13zM-78 747q0 -5 -0.5 -5t-0.5 6v15l1 -8v8v-16zM667 -24q-10 0 -17 6l-211 179h-261q-34 0 -57.5 24t-23.5 57v478q0 33 23.5 57t57.5 24h775q34 0 57.5 -24t23.5 -57v-478q0 -33 -23.5 -57
t-57.5 -24h-258l-3 -160q0 -16 -15 -23q-5 -2 -10 -2v0v0v0zM178 750q-13 0 -21.5 -8.5t-8.5 -21.5v-478q0 -12 8.5 -21t21.5 -9h270q9 0 16 -6l178 -151l2 132q1 10 8 17.5t18 7.5h283q13 0 22 9t9 21v478q0 13 -9 21.5t-22 8.5h-775zM414 605h303v-50h-303v50zM414 467
h303v-51h-303v51zM414 467z" />
    <glyph glyph-name="renzheng" unicode="&#xe683;" 
d="M479 130l261 398h8l-4 -18l-273 -435h-12l-167 313l-59 -32l-6 18l96 53zM480 59h-31l-163 307l-62 -34l-16 50l121 67l152 -287l250 382h37l-9 -40l-279 -445v0zM305 399l161 -303l7 12l-157 297zM484 53h-38l-163 306l-62 -35l-20 60l130 73l149 -283l263 439h62v-5
l-321 -555v0zM312 396l154 -287v0l-152 288zM493 37h-57l-159 300l-65 -36l-31 91l157 86l143 -271l253 423h87v-26l-2 -4zM456 69h18l306 528h-28l-273 -455l-154 293l-105 -58l10 -30l60 33zM464 77l-13 24l-160 302l29 16l164 -311zM512 -123q-103 0 -197 40.5
t-161.5 108t-108 161.5t-40.5 197t40.5 197t108 161.5t161.5 108t197 40.5t197 -40.5t161.5 -108t108 -161.5t40.5 -197t-40.5 -197t-108 -161.5t-161.5 -108t-197 -40.5zM512 843q-93 0 -178 -36.5t-146.5 -98t-98 -146.5t-36.5 -178t36.5 -178t98 -146.5t146.5 -98
t178 -36.5t178 36.5t146.5 98t98 146.5t36.5 178t-36.5 178t-98 146.5t-146.5 98t-178 36.5z" />
    <glyph glyph-name="yanzhengma" unicode="&#xe665;" 
d="M879 -8h-735q-48 0 -68 38q-13 26 -13 75v40h41v-40q0 -45 10 -58.5t30 -13.5h735q19 0 29 13.5t10 58.5v40h41v-40q0 -49 -13 -75q-20 -38 -67 -38zM959 638h-41v37q0 46 -10 59t-29 13h-735q-20 0 -30 -13t-10 -59v-37h-41v37q0 50 13 75q20 38 68 38h735q47 0 67 -38
q13 -25 13 -75v-37zM300 231h-41v256q-14 -14 -37.5 -28t-42.5 -20v38q34 16 59 38.5t36 44.5h26v-329zM614 269v-38h-216q-1 14 4 27q9 23 27 44.5t52 49.5q54 44 72.5 69.5t18.5 48.5q0 24 -17 40t-44 16q-29 0 -46.5 -17t-17.5 -48l-42 4q4 46 32 70.5t75 24.5
t74.5 -26.5t27.5 -64.5q0 -20 -8 -39t-27 -40t-62 -58q-36 -30 -46.5 -41t-16.5 -22h160zM658 317l40 5q7 -34 23.5 -49t40.5 -15q29 0 48.5 19.5t19.5 48.5q0 28 -18.5 46t-46.5 18q-11 0 -28 -4l5 35h6q26 0 46.5 13t20.5 41q0 23 -15 37.5t-39 14.5q-23 0 -39 -15
t-20 -44l-40 7q7 40 33 62.5t65 22.5q27 0 49.5 -11.5t34.5 -31.5t12 -42t-11.5 -39.5t-33.5 -27.5q29 -7 45 -28t16 -53q0 -43 -31 -72.5t-79 -29.5q-43 0 -71.5 25.5t-32.5 66.5z" />
    <glyph glyph-name="hulixue-copy" unicode="&#xe601;" 
d="M512 650q95 0 162.5 -67.5t67.5 -163t-67.5 -163t-162.5 -67.5t-162.5 67.5t-67.5 163t67.5 163t162.5 67.5v0zM411 162h202q39 0 68 -1.5t61.5 -5.5t55.5 -12t45 -21t35.5 -32t21.5 -45.5t8 -60.5v-74h-792v74q0 34 8 60.5t21.5 45.5t35.5 32t45 21t55.5 12t61.5 5.5
t68 1.5v0zM296 570q31 54 95 83q57 26 124.5 25.5t122.5 -27.5q61 -29 89 -82l70 141q-28 35 -60 62q-102 85 -225 86q-123 2 -230 -83q-36 -28 -68 -65q16 -27 42 -71q25 -43 40 -69v0zM476 840h50v-47h46v-50h-46v-46h-50v46h-47v50h47v47z" />
    <glyph glyph-name="canyin" unicode="&#xe625;" 
d="M428 524q0 -49 -37 -82q-16 -13 -33 -22q6 -8 6 -19v-420q0 -16 -11 -27.5t-27 -11.5t-27.5 11.5t-11.5 27.5v422q0 3 1 7.5t1 6.5q-17 5 -34 15q-22 15 -35 39t-13 51v321h-43v-319q0 -44 23.5 -80.5t61.5 -55.5v-407q0 -32 22.5 -54.5t54 -22.5t54.5 22.5t23 54.5v415
q32 20 50.5 54t18.5 74v319h-44v-319zM251 843h38v-231h-38v231zM347 843h38v-231h-38v231zM817 841q-95 0 -162.5 -67.5t-67.5 -162.5v-269q0 -64 33 -118.5t88 -83.5v-159q0 -32 22.5 -54.5t54 -22.5t54 22.5t22.5 54.5v860h-44zM821 -19q0 -16 -11 -27.5t-27 -11.5
t-27.5 11.5t-11.5 27.5v182q-18 8 -38 21q-38 27 -60.5 68.5t-22.5 89.5v269q0 79 56.5 135.5t135.5 56.5h6v-822z" />
    <glyph glyph-name="guaizhang" unicode="&#xe603;" 
d="M508 707q11 -5 23 -15l114 85l-2.5 2.5t-1.5 2.5q-37 36 -84 55zM574 489v-104l140 104v105zM574 315v-104l140 104v105zM714 246l-140 -105v-104l140 104v105zM566 648q8 -20 8 -43v-46l134 100q-9 39 -30 74zM578 -30q9 -20 31 -21h35h35q14 0 24.5 10.5t10.5 24.5v87
l-136 -101v0zM229 691q-15 -42 -15 -86v0v0v0q0 -15 10 -25t25 -10h70q13 0 23 9.5t11 22.5zM419 706q15 6 32 9l51 137q-20 3 -38 3q-39 0 -76 -11zM369 659q0 1 1 2.5t2 2.5l-35 156q-28 -16 -50 -38q-18 -18 -32 -40zM316 753v0q61 62 148 62t148 -61.5t61 -148.5v-647
h-58v647q0 63 -44.5 107t-106.5 44q-61 0 -106 -45q-43 -43 -45 -101h-58v9q5 78 61 134zM287 782q-73 -73 -73 -177v0v-35l139 -1v36q0 45 33.5 78t77.5 33q46 0 78 -32.5t32 -78.5v-688l140 1v687q0 104 -73.5 177t-177 73t-176.5 -73v0z" />
    <glyph glyph-name="haoping" unicode="&#xe651;" 
d="M608 -125q-207 0 -260 11q-30 6 -41 11q-18 11 -27 17q-15 13 -54 20q-35 7 -130 13q-16 1 -25 12q-8 10 -25 45q-44 94 -44 206q0 146 49 223q10 15 28 15q83 0 183 101q100 102 172 275q8 10 12 28q1 3 6 11.5t7 10.5q10 7 15 10t17 6t28 3q27 0 54.5 -17t42.5 -43
q19 -30 22 -88q5 -98 -21 -203q119 1 241 1q58 0 94.5 -32t37.5 -83q1 -44 -9 -67q40 -39 41 -76q1 -46 -46 -96q13 -31 12 -48q-2 -54 -64 -98q5 -34 -1 -58q-24 -110 -315 -110v0zM113 11q164 -13 206 -45q16 -12 28 -16q35 -11 261 -11q76 0 151 9q92 11 103 50
q4 20 -19 45q-5 12 -0.5 24.5t16.5 17.5h1q21 9 32 16q31 18 32 42q1 10 -3 19t-8 13.5l-4 4.5q-7 10 -4.5 22.5t12.5 21.5l13 8q9 8 18.5 22.5t9.5 28.5q-1 25 -38 46q-11 7 -16 22q-3 14 6 26q2 1 5 7t7 18.5t4 24.5q-1 37 -31 45q-17 7 -37 7h-233l-53 -1q-20 0 -27 15
q-9 14 -3 30q25 69 32.5 154t-12.5 123q-6 11 -8 15t-11.5 9t-23.5 5q-2 0 -5.5 -1.5t-9.5 -9t-11 -19.5q-76 -184 -185 -295q-109 -109 -209 -119q-10 -24 -14 -36q-19 -56 -19 -139q0 -45 9 -89q15 -75 38 -110v0z" />
    <glyph glyph-name="fuwu" unicode="&#xe61d;" 
d="M353 -61h-46v106q-28 2 -54 6.5t-61.5 16t-61.5 28.5t-45.5 47t-20.5 68l40 1q1 -28 18.5 -51t40.5 -35.5t48 -21t39.5 -11.5t17.5 -3l82 -7v-144h3zM691 834q-65 0 -119 -26q-31 -15 -61 -39q-28 23 -61 39q-55 26 -120 26q-54 0 -100 -24q-42 -23 -72 -62
q-59 -77 -59 -180q0 -267 388 -479l24 -14l24 14q389 212 389 480q0 66 -27 126t-81.5 99.5t-124.5 39.5zM674 -61v144l82 7q3 0 17.5 3t39.5 11.5t48 21t40.5 35.5t18.5 51l40 -1q-1 -38 -20.5 -68t-45 -47t-61.5 -29t-62 -16t-54 -6v-106h-46h3z" />
</font>
</defs>
</svg>
